<?xml version="1.0" encoding="UTF-8"?>
<!-- Generator: Blender, SVG Export for Grease Pencil - v2.0 -->
<!DOCTYPE svg PUBLIC "-//W3C//DTD SVG 1.1//EN" "http://www.w3.org/Graphics/SVG/1.1/DTD/svg11.dtd">
<svg version="1.0" x="0px" y="0px" xmlns="http://www.w3.org/2000/svg" width="937.776611px" height="527.499390px" viewBox="0 0 937.776611 527.499390">
	<g id="blender_frame_1">
		<g id="blender_object_Stroke">
			<!--Layer: Fills-->
			<g id="Fills" />
			<!--Layer: Lines-->
			<g id="Lines">
				<polyline stroke-width="5" points="80.839890,80.384064 77.344223,98.764038 73.631790,133.276123 69.658768,181.045532 68.886063,212.249237" stroke="gray" stroke-opacity="1" fill="none" stroke-linecap="round" />
				<polyline stroke-width="5" points="78.050575,129.117371 105.649208,103.717590 118.817986,93.204163 125.250984,89.344666 132.247543,86.590912 139.105103,85.901764 144.730881,87.622620 149.618103,91.929413 153.712341,99.215515 157.297134,109.746918 159.818420,121.180359 161.261398,132.865814 161.981201,153.901642 161.141235,169.026215 158.900986,183.725647 158.886581,186.248932" stroke="gray" stroke-opacity="1" fill="none" stroke-linecap="round" />
				<polyline stroke-width="5" points="271.739471,97.231384 261.638367,97.141571 256.318329,97.794342 251.201614,99.290070 246.044830,101.909363 240.495544,106.313995 235.454086,111.892120 230.009216,120.380798 225.101364,130.312958 220.996201,141.265717 217.968262,152.238312 216.255112,162.363800 216.667130,170.338104 219.017380,175.319153 222.825089,178.199554 227.435349,179.642914 232.396881,179.849518 238.033890,178.907318 243.709564,176.708710 250.430191,172.742401 256.501617,167.905396 262.890259,161.353088 268.635132,154.150146 274.162506,145.938934 278.402100,138.036102 281.456360,130.212280 283.585266,122.270874 284.644867,115.263611 284.631897,107.071777 283.394531,106.399506 282.239471,106.773987 280.527710,108.818176 276.355530,121.497803 272.814026,143.416626 271.809448,157.100037 271.640381,186.668671 272.448792,211.415558 274.279602,223.933380 275.705750,227.126984 278.041412,230.073975 280.887268,229.249359" stroke="gray" stroke-opacity="1" fill="none" stroke-linecap="round" />
				<polyline stroke-width="5" points="369.660278,105.236542 354.586884,107.415100 347.720886,109.585388 340.757660,113.439423 334.712341,118.373199 329.887146,124.473297 327.176239,130.444916 326.207581,136.176178 326.624756,141.866272 328.764404,147.442108 332.146027,152.591675 337.252716,158.191925 354.100525,174.095062 361.744904,183.283936 363.377380,186.732117 364.042572,190.436523 362.812439,194.804596 359.626526,199.047119 355.318451,202.347626 343.620056,208.752930 337.970673,210.913788 332.369537,212.238159 324.518188,212.081543 322.263580,211.430084 319.887482,208.249176" stroke="gray" stroke-opacity="1" fill="none" stroke-linecap="round" />
				<polyline stroke-width="5" points="416.854553,105.430603 414.999512,127.477509 414.841797,139.142059 416.379791,188.528351 418.307495,211.974609 419.519165,216.067749 422.888062,222.249329" stroke="gray" stroke-opacity="1" fill="none" stroke-linecap="round" />
				<polyline stroke-width="5" points="481.838257,94.465149 479.251617,123.624695 478.889862,137.519257 479.397614,195.499695 481.426575,210.175354 484.294159,221.103058 488.888397,233.249420" stroke="gray" stroke-opacity="1" fill="none" stroke-linecap="round" />
				<polyline stroke-width="5" points="545.805359,94.355804 542.737061,104.273376 541.529602,115.130249 541.916992,130.790619 543.448608,149.610565 555.042969,240.465576 556.545288,260.633484 557.076050,277.806519 556.676208,292.931641 555.454346,306.009399 553.573914,316.245361 550.900208,325.168335 547.280029,333.259888 543.487549,339.008057 538.275391,344.525513 532.728271,348.380005 526.594421,351.152466 519.557190,353.137695 512.754333,353.920166 505.208313,353.746094 496.871338,352.392456 488.643860,349.942322 479.747314,345.915527 471.058899,340.914612 457.312439,330.473083 448.888367,321.250214" stroke="gray" stroke-opacity="1" fill="none" stroke-linecap="round" />
				<polyline stroke-width="5" points="666.712219,104.181244 654.186218,101.188019 647.803589,100.866821 641.934448,102.295135 635.056702,106.143280 627.426025,113.240204 620.756714,122.131470 615.137024,132.538269 610.070190,145.483246 606.661133,158.635986 605.091675,170.594421 605.462219,181.486969 607.471985,190.645752 610.847168,197.442963 614.216858,201.364838 618.970459,204.353912 623.984070,205.617340 629.441956,205.463623 635.150757,203.701111 640.751099,200.390839 646.653992,195.023102 651.313599,188.950104 655.632690,181.318756 658.936707,173.079285 661.544250,164.338623 664.617981,143.402588 667.559204,103.163940 668.783264,103.801880 671.961670,123.619019 680.639282,160.697235 687.967224,184.835388 694.869263,203.170593 699.954590,213.860840 704.605347,219.554688 706.976807,220.246735 709.262024,218.611633 709.786499,217.055756 709.889832,210.249176" stroke="gray" stroke-opacity="1" fill="none" stroke-linecap="round" />
				<polyline stroke-width="5" points="749.860352,99.476807 746.452759,126.266052 744.205261,152.050568 744.116272,166.016266 745.196533,178.765625 747.667908,190.089905 751.537781,200.196808 755.925110,207.726746 760.768127,213.350189 765.718018,217.006348 770.710876,218.576263 775.674194,218.460785 780.359192,216.723755 784.843262,213.606750 789.519348,208.852478 793.215515,203.714111 796.665222,197.272614 802.294678,180.272186 806.076843,158.462616 808.050415,133.378021 808.862488,107.086243 811.655823,126.778076 816.466736,147.676819 828.112122,194.230286 833.183533,207.957184 836.206604,212.351257 839.365723,215.495056 843.013794,217.499817 845.799194,218.047577 850.632629,216.693329 852.503235,215.175476 855.031738,211.517822 855.890564,208.249115" stroke="gray" stroke-opacity="1" fill="none" stroke-linecap="round" />
			</g>
		</g>
	</g>
</svg>
